HIERARCHY
ROOT Hips
{
	OFFSET 0.000000 0.000000 0.000000
	CHANNELS 6 Xposition Yposition Zposition Zrotation Yrotation Xrotation 
	JOINT LHipJoint
	{
		OFFSET 0.000000 0.000000 0.000000
		CHANNELS 3 Zrotation Yrotation Xrotation
		JOINT LeftUpLeg
		{
			OFFSET 1.363060 -1.794630 0.839290
			CHANNELS 3 Zrotation Yrotation Xrotation
			JOINT LeftLeg
			{
				OFFSET 2.448110 -6.726130 0.000000
				CHANNELS 3 Zrotation Yrotation Xrotation
				JOINT LeftFoot
				{
					OFFSET 2.562200 -7.039590 0.000000
					CHANNELS 3 Zrotation Yrotation Xrotation
					JOINT LeftToeBase
					{
						OFFSET 0.157640 -0.433110 2.322550
						CHANNELS 3 Zrotation Yrotation Xrotation
						End Site
						{
							OFFSET 0.000000 0.000000 0.000000
						}
					}
				}
			}
		}
	}
	JOINT RHipJoint
	{
		OFFSET 0.000000 0.000000 0.000000
		CHANNELS 3 Zrotation Yrotation Xrotation
		JOINT RightUpLeg
		{
			OFFSET -1.305520 -1.794630 0.839290
			CHANNELS 3 Zrotation Yrotation Xrotation
			JOINT RightLeg
			{
				OFFSET -2.542530 -6.985550 0.000000
				CHANNELS 3 Zrotation Yrotation Xrotation
				JOINT RightFoot
				{
					OFFSET -2.568260 -7.056230 0.000000
					CHANNELS 3 Zrotation Yrotation Xrotation
					JOINT RightToeBase
					{
						OFFSET -0.164730 -0.452590 2.363150
						CHANNELS 3 Zrotation Yrotation Xrotation
						End Site
						{
							OFFSET 0.000000 0.000000 0.000000
						}
					}
				}
			}
		}
	}
	JOINT LowerBack
	{
		OFFSET 0.000000 0.000000 0.000000
		CHANNELS 3 Zrotation Yrotation Xrotation
		JOINT Spine
		{
			OFFSET 0.028270 2.035590 -0.193380
			CHANNELS 3 Zrotation Yrotation Xrotation
			JOINT Spine1
			{
				OFFSET 0.056720 2.048850 -0.042750
				CHANNELS 3 Zrotation Yrotation Xrotation
				JOINT Neck
				{
					OFFSET 0.000000 0.000000 0.000000
					CHANNELS 3 Zrotation Yrotation Xrotation
					JOINT Neck1
					{
						OFFSET -0.054170 1.746240 0.172020
						CHANNELS 3 Zrotation Yrotation Xrotation
						JOINT Head
						{
							OFFSET 0.104070 1.761360 -0.123970
							CHANNELS 3 Zrotation Yrotation Xrotation
							End Site
							{
								OFFSET 0.000000 0.000000 0.000000
							}
						}
					}
				}
				JOINT LeftShoulder
				{
					OFFSET 0.000000 0.000000 0.000000
					CHANNELS 3 Zrotation Yrotation Xrotation
					JOINT LeftArm
					{
						OFFSET 3.362410 1.200890 -0.311210
						CHANNELS 3 Zrotation Yrotation Xrotation
						JOINT LeftForeArm
						{
							OFFSET 4.983000 -0.000000 -0.000000
							CHANNELS 3 Zrotation Yrotation Xrotation
							JOINT LeftHand
							{
								OFFSET 3.483560 -0.000000 -0.000000
								CHANNELS 3 Zrotation Yrotation Xrotation
								JOINT LeftFingerBase
								{
									OFFSET 0.000000 0.000000 0.000000
									CHANNELS 3 Zrotation Yrotation Xrotation
									JOINT LeftHandIndex1
									{
										OFFSET 0.715260 -0.000000 -0.000000
										CHANNELS 3 Zrotation Yrotation Xrotation
										End Site
										{
											OFFSET 0.000000 0.000000 0.000000
										}
									}
								}
								JOINT LThumb
								{
									OFFSET 0.000000 0.000000 0.000000
									CHANNELS 3 Zrotation Yrotation Xrotation
									End Site
									{
										OFFSET 0.000000 0.000000 0.000000
									}
								}
							}
						}
					}
				}
				JOINT RightShoulder
				{
					OFFSET 0.000000 0.000000 0.000000
					CHANNELS 3 Zrotation Yrotation Xrotation
					JOINT RightArm
					{
						OFFSET -3.136600 1.374050 -0.404650
						CHANNELS 3 Zrotation Yrotation Xrotation
						JOINT RightForeArm
						{
							OFFSET -5.241900 -0.000000 -0.000000
							CHANNELS 3 Zrotation Yrotation Xrotation
							JOINT RightHand
							{
								OFFSET -3.444170 -0.000000 -0.000000
								CHANNELS 3 Zrotation Yrotation Xrotation
								JOINT RightFingerBase
								{
									OFFSET 0.000000 0.000000 0.000000
									CHANNELS 3 Zrotation Yrotation Xrotation
									JOINT RightHandIndex1
									{
										OFFSET -0.622530 -0.000000 -0.000000
										CHANNELS 3 Zrotation Yrotation Xrotation
										End Site
										{
											OFFSET 0.000000 0.000000 0.000000
										}
									}
								}
								JOINT RThumb
								{
									OFFSET 0.000000 0.000000 0.000000
									CHANNELS 3 Zrotation Yrotation Xrotation
									End Site
									{
										OFFSET 0.000000 0.000000 0.000000
									}
								}
							}
						}
					}
				}
			}
		}
	}
}
MOTION
Frames: 9
Frame Time: 0.008333
11.274628 22.215326 -6.157127 -2.590805 -3.499053 7.635024 1.463011 3.962237 1.805559 -17.332241 -13.935864 -7.757298 -1.942144 7.113060 17.309217 -6.586787 34.421704 21.005540 1.250600 7.090100 19.982700 -6.282711 -3.804462 0.140590 28.854980 12.649160 -6.431510 1.412798 -7.282078 19.599990 4.160892 -34.958889 24.738076 -1.079900 -6.605300 18.551300 4.793120 0.862237 5.790041 -0.302825 1.632324 7.958034 -4.368604 0.397622 -14.398207 -5.943838 -4.295254 -19.299657 8.788792 -4.985016 27.481226 0.842100 -1.153100 8.640900 0.995679 -8.193789 2.690927 -54.998264 -16.093729 14.547429 26.327175 -26.917742 -6.397319 1.001909 0.437565 11.664328 14.299037 -50.719724 -10.600000 -7.125000 0.000000 0.000000 -13.293400 -21.285400 17.572800 -1.301097 9.774173 3.104609 36.841581 22.173787 -0.184727 -46.798988 46.993737 -19.782210 0.561488 -1.025413 -2.054678 -1.981307 -54.517160 2.033600 7.125000 0.000000 0.000000 72.673400 -72.362100 -54.285500 
11.277397 22.361471 -6.062542 -2.495479 -3.441122 7.425811 1.390549 3.916618 1.811194 -17.146581 -14.686570 -8.068292 -2.054087 6.999164 16.964101 -6.823894 34.449589 20.073054 1.499000 7.733600 21.907900 -6.279662 -3.741953 0.221946 28.705459 13.121977 -6.747018 1.625706 -6.965927 18.557152 4.154042 -35.333611 25.035120 -1.394900 -7.472000 21.121400 4.781855 0.741813 6.104604 -0.737722 1.516777 8.976577 -4.254791 0.367904 -14.710240 -5.786002 -4.281082 -19.345053 9.027144 -5.067128 27.110159 0.879100 -1.179600 8.544400 1.058799 -8.223609 2.590041 -56.127433 -15.521268 14.643507 26.141498 -26.694085 -6.358831 1.019393 0.428459 12.870077 15.428180 -51.055630 -11.560800 -7.125000 0.000000 0.000000 -12.909800 -21.858900 17.115100 -1.304413 9.766285 3.074654 38.206861 21.067739 1.630729 -47.025877 46.981588 -19.921372 0.393944 -1.060143 -5.339099 -16.657480 -54.909558 13.811100 7.125000 0.000000 0.000000 67.740900 -77.834100 -55.810800 
11.282011 22.489161 -5.965189 -2.327181 -3.341942 7.144621 1.293804 3.888071 1.820740 -17.027588 -15.536727 -8.264750 -2.152784 6.890910 16.605226 -6.995732 34.622202 19.501372 1.465000 7.649200 21.653600 -6.273733 -3.674643 0.317857 28.449179 13.536120 -6.944634 1.892200 -6.577121 17.508848 4.610477 -35.608715 23.338506 -1.350600 -7.357000 20.777500 4.802530 0.611019 6.484257 -1.402908 1.420372 10.055190 -4.104392 0.337014 -15.075513 -5.425727 -4.195862 -20.088482 9.202711 -5.006225 27.223580 0.907700 -1.103600 8.691500 1.142912 -8.216042 2.493860 -57.103712 -14.755340 15.347309 26.366692 -26.948762 -6.492786 1.029440 0.435973 12.898687 14.957165 -51.073425 -11.177700 -7.125000 0.000000 0.000000 -13.113200 -21.785500 17.386600 -1.312909 9.786160 3.056719 39.515812 20.071756 2.111048 -47.248434 47.081419 -20.176452 0.493045 -1.026593 -3.546143 -8.005614 -56.892342 7.008300 7.125000 0.000000 0.000000 78.247000 -74.977900 -62.634100 
11.285010 22.601624 -5.877064 -2.344117 -3.204478 6.923419 1.218390 3.854550 1.777888 -16.696975 -16.369489 -8.563880 -2.224150 6.804106 16.214400 -7.213493 35.307415 19.324422 1.188200 6.917400 19.470900 -6.269386 -3.597899 0.387206 28.388481 14.122367 -7.109305 2.154998 -6.199316 16.411761 5.164716 -36.711907 21.885941 -1.629100 -8.046600 22.855800 4.916899 0.483577 7.111874 -1.856939 1.357963 10.750848 -4.076645 0.298260 -15.516210 -5.146335 -4.216191 -20.625842 9.349484 -5.096070 27.283867 0.917900 -1.111200 8.789100 1.189594 -8.206883 2.416390 -58.093625 -14.222588 15.934669 26.248065 -26.829436 -6.490116 1.053120 0.430239 12.757967 13.494076 -51.517220 -10.035300 -7.125000 0.000000 0.000000 -13.822600 -21.904100 18.383900 -1.317146 9.792331 3.064125 40.809315 18.950012 3.153884 -47.128965 46.993714 -20.162078 0.548248 -1.011481 -3.775730 -3.830083 -58.169528 3.643200 7.125000 0.000000 0.000000 83.812700 -73.639300 -66.593100 
11.285586 22.702669 -5.795628 -2.501151 -3.001399 6.752441 1.218557 3.785638 1.704940 -16.239150 -17.215514 -8.947602 -2.319669 6.717046 15.914523 -7.986223 36.495136 17.397271 1.473800 7.671300 21.719900 -6.224970 -3.498419 0.476152 28.384370 15.125104 -7.223428 2.450223 -5.800730 15.267301 6.054838 -38.414516 19.548726 -1.934600 -8.728600 24.949900 4.777060 0.364712 7.765764 -1.642121 1.244531 11.320613 -4.049197 0.254752 -15.965851 -5.199150 -4.248931 -20.977857 9.480016 -5.147849 27.270256 0.967600 -1.129000 8.835000 1.147183 -8.210623 2.340484 -59.315937 -13.499715 16.558369 26.249761 -26.845352 -6.539902 1.069365 0.432431 12.554044 12.224495 -51.913199 -9.042900 -7.125000 0.000000 0.000000 -14.431700 -22.032200 19.250200 -1.352537 9.804819 3.077962 41.989922 17.869173 4.383295 -46.954007 46.851036 -20.040922 0.560059 -0.989960 -4.136220 -4.312414 -57.285154 4.013500 7.125000 0.000000 0.000000 80.722900 -73.730500 -63.622300 
11.285932 22.792178 -5.705311 -2.660241 -2.861408 6.525803 1.252109 3.712954 1.674406 -15.827589 -18.125516 -9.225422 -2.450075 6.614903 15.736618 -9.116581 37.671955 13.826223 2.315600 9.494700 27.355500 -6.164319 -3.405164 0.609334 28.300983 16.384820 -7.146722 2.761546 -5.345911 14.075389 7.166659 -40.142554 16.366400 -2.355100 -9.569500 27.593500 4.487102 0.299090 8.088691 -1.190483 1.139511 12.254861 -3.984846 0.241764 -16.239853 -5.417347 -4.288789 -21.321348 9.654649 -5.183920 27.137350 1.051800 -1.151600 8.863100 1.093885 -8.236891 2.237657 -60.557616 -13.126625 17.180434 26.136047 -26.703501 -6.530383 1.098222 0.436129 12.265123 10.710421 -51.953048 -7.798700 -7.125000 0.000000 0.000000 -15.066500 -21.790000 20.108300 -1.431447 9.825209 3.065208 43.038772 16.882281 5.629017 -46.827223 46.714071 -19.943437 0.566864 -0.969550 -3.847894 -4.877131 -55.877242 4.420000 7.125000 0.000000 0.000000 75.810700 -73.717800 -58.836800 
11.285240 22.866231 -5.605767 -2.746978 -2.794471 6.313422 1.266539 3.637546 1.667733 -15.488685 -18.864344 -9.534829 -2.584572 6.519836 15.617832 -9.998052 38.251842 10.368831 3.052200 10.779100 31.538400 -6.129128 -3.320152 0.725735 28.138267 17.531932 -7.036011 3.036577 -4.874356 12.858536 8.065222 -41.529274 13.866723 -2.807700 -10.377000 30.206300 4.297768 0.241451 8.318359 -1.060971 1.062699 13.197149 -3.901790 0.237241 -16.419184 -5.204538 -4.277565 -21.429363 9.384643 -5.131420 26.686799 0.944000 -1.169600 8.759200 1.083764 -8.254448 2.134425 -61.622046 -12.610807 18.175333 26.054228 -26.578983 -6.529651 1.118356 0.444722 12.092175 10.069065 -51.805968 -7.252600 -7.125000 0.000000 0.000000 -15.307700 -21.543200 20.413300 -1.501299 9.853383 3.036690 44.106490 15.877458 6.996398 -46.764427 46.612366 -19.918369 0.563195 -0.959291 -3.820981 -5.763794 -55.555999 5.124500 7.125000 0.000000 0.000000 74.396300 -73.971900 -57.784000 
11.285702 22.924251 -5.507837 -2.785883 -2.681208 6.148571 1.274013 3.536857 1.635402 -15.173825 -19.567175 -9.921325 -2.727852 6.440045 15.552332 -10.677717 38.378824 6.835901 3.760100 11.834100 35.147700 -6.104555 -3.223072 0.809110 27.889240 18.673650 -6.924964 3.301169 -4.370338 11.588519 8.923327 -42.712513 11.348793 -3.146800 -10.929000 32.040600 4.172662 0.146996 8.789626 -1.116545 0.969700 13.783877 -3.838222 0.212867 -16.720572 -5.256839 -4.221109 -21.649133 9.695077 -5.112215 26.599346 1.048700 -1.136300 8.773100 1.088891 -8.274893 2.070546 -62.685962 -11.582164 19.238844 26.056993 -26.560909 -6.568978 1.109984 0.457469 12.684655 11.733149 -51.837382 -8.616300 -7.125000 0.000000 0.000000 -14.636200 -21.901900 19.519200 -1.514247 9.870868 3.022069 45.431865 14.950873 8.168478 -46.466005 46.415622 -19.757889 0.562020 -0.955354 -3.553938 -5.263338 -56.546806 4.777000 7.125000 0.000000 0.000000 78.012200 -73.977800 -61.258200 
11.289739 22.963700 -5.410368 -2.888007 -2.594276 5.985222 1.290105 3.434048 1.591636 -14.778425 -20.505777 -10.248292 -2.863791 6.368923 15.504798 -11.260880 38.490834 3.375659 4.479500 12.772500 38.522900 -6.060419 -3.124684 0.914384 27.604224 19.952627 -6.763020 3.568112 -3.821204 10.259565 9.817240 -43.662676 8.265814 -3.421500 -11.348000 33.462800 4.037144 0.099694 9.107123 -0.962724 0.908786 14.436116 -3.826601 0.208267 -16.920675 -5.557827 -4.198504 -21.757964 10.178769 -5.141235 26.419781 1.227300 -1.128900 8.754200 1.073863 -8.322717 1.997768 -63.873557 -10.647418 19.999819 25.975290 -26.446870 -6.571604 1.110846 0.466715 13.373560 13.155672 -51.842342 -9.782000 -7.125000 0.000000 0.000000 -14.062300 -22.205600 18.756300 -1.545658 9.878634 2.998274 46.667009 14.254625 9.183777 -45.617114 45.899336 -19.172632 0.567654 -0.954059 -2.903894 -4.748547 -56.796326 4.379500 7.125000 0.000000 0.000000 79.053500 -73.838400 -62.109700 
